<svg width="25" height="24" viewBox="0 0 25 24" fill="none" xmlns="http://www.w3.org/2000/svg">
<path opacity="0.48" d="M20.8309 2C21.8434 2 22.6643 2.82081 22.6643 3.83333C22.6643 4.84586 21.8434 5.66667 20.8309 5.66667C20.5151 5.66667 20.2179 5.5868 19.9584 5.44615L16.9335 8.92577C17.0682 9.18091 17.1444 9.47164 17.1444 9.78018C17.1444 10.7927 16.3236 11.6135 15.311 11.6135C14.329 11.6135 13.5272 10.8413 13.4799 9.87094L11.2765 9.11245C10.9403 9.52023 10.4312 9.78018 9.86136 9.78018C9.53424 9.78018 9.22712 9.6945 8.96124 9.54437L6.08563 11.9571C6.13979 12.1302 6.16899 12.3144 6.16899 12.5053C6.16899 13.5178 5.34817 14.3386 4.33565 14.3386C3.32313 14.3386 2.50232 13.5178 2.50232 12.5053C2.50232 11.4928 3.32313 10.672 4.33565 10.672C4.66656 10.672 4.97699 10.7596 5.24498 10.913L8.11459 8.50515C8.05837 8.32911 8.02803 8.14152 8.02803 7.94685C8.02803 6.93433 8.84884 6.11351 9.86136 6.11351C10.8371 6.11351 11.6349 6.87583 11.6915 7.83739L13.9075 8.60065C14.2438 8.20089 14.7477 7.94685 15.311 7.94685C15.5241 7.94685 15.7286 7.98319 15.9189 8.05001L19.0882 4.40419C19.0294 4.22454 18.9976 4.03265 18.9976 3.83333C18.9976 2.82081 19.8184 2 20.8309 2Z" fill="#637381"/>
<path d="M21.75 10.6086C22.2563 10.6086 22.6667 11.019 22.6667 11.5253V22.2794C22.6667 22.5555 22.4428 22.7794 22.1667 22.7794H19.5C19.2239 22.7794 19 22.5555 19 22.2794V11.5253C19 11.019 19.4104 10.6086 19.9167 10.6086H21.75ZM16.25 17.0341C16.7563 17.0341 17.1667 17.4445 17.1667 17.9508V22.2794C17.1667 22.5555 16.9428 22.7794 16.6667 22.7794H14C13.7239 22.7794 13.5 22.5555 13.5 22.2794V17.9508C13.5 17.4445 13.9104 17.0341 14.4167 17.0341H16.25ZM10.75 15.1936C11.2563 15.1936 11.6667 15.604 11.6667 16.1103V22.2794C11.6667 22.5555 11.4428 22.7794 11.1667 22.7794H8.5C8.22386 22.7794 8 22.5555 8 22.2794V16.1103C8 15.604 8.41041 15.1936 8.91667 15.1936H10.75ZM5.25 19.9071C5.75626 19.9071 6.16667 20.3175 6.16667 20.8238V22.2794C6.16667 22.5555 5.94281 22.7794 5.66667 22.7794H3C2.72386 22.7794 2.5 22.5555 2.5 22.2794V20.8238C2.5 20.3175 2.91041 19.9071 3.41667 19.9071H5.25Z" fill="#637381"/>
</svg>
