<svg width="25" height="24" viewBox="0 0 25 24" fill="none" xmlns="http://www.w3.org/2000/svg">
<g id="icon/navbar/ic_chat">
<path id="Shape" d="M9.29129 2.78845C4.42792 2.78845 0.706177 5.99504 0.706177 9.49056C0.706177 12.9861 3.91949 15.0115 3.91949 15.0115L3.39725 16.9349C3.32821 17.1884 3.60783 17.3978 3.84256 17.2684L6.18992 15.9761C7.22798 16.2971 9.43085 16.3997 9.64537 16.4092C9.49151 15.8908 9.41556 15.38 9.41556 14.9032C9.41556 12.2055 11.8329 8.40572 17.2067 8.40572C17.329 8.40572 17.4513 8.4086 17.5736 8.41339C16.8586 5.08797 13.305 2.78845 9.29129 2.78845Z" fill="#637381"/>
<path id="Shape_2" opacity="0.48" d="M24.3771 14.4811C24.3771 11.4193 20.68 9.17725 17.2063 9.17725C12.2936 9.17725 10.2091 12.6249 10.2091 14.9033C10.2091 17.1865 12.2931 20.6293 17.2063 20.6293C18.2932 20.6293 19.2494 20.4779 20.0808 20.2096L21.9286 21.349C22.0746 21.4391 22.259 21.3121 22.2201 21.1483L21.8009 19.3801C23.5466 18.1985 24.3771 16.336 24.3771 14.4811Z" fill="#637381"/>
</g>
</svg>
