<svg width="33" height="32" viewBox="0 0 33 32" fill="none" xmlns="http://www.w3.org/2000/svg">
<path d="M23.0329 4.66663C23.0329 4.29844 22.7423 3.99996 22.3837 3.99996H19.1376C15.7348 3.8259 12.834 6.50675 12.6453 9.99996V13.6H9.39922C9.04067 13.6 8.75 13.8984 8.75 14.2666V17.7333C8.75 18.1015 9.04067 18.4 9.39922 18.4H12.6453V27.3333C12.6453 27.7015 12.936 28 13.2946 28H17.1899C17.5485 28 17.8391 27.7015 17.8391 27.3333V18.4H21.2411C21.5381 18.4043 21.8001 18.2012 21.8773 17.9066L22.8122 14.44C22.8646 14.2403 22.8237 14.027 22.7017 13.8626C22.5797 13.6981 22.3903 13.6011 22.189 13.6H17.8391V9.99996C17.9061 9.31609 18.4683 8.79652 19.1376 8.79996H22.3837C22.7423 8.79996 23.0329 8.50148 23.0329 8.1333V4.66663Z" fill="#1877F2"/>
</svg>
