<svg width="33" height="32" viewBox="0 0 33 32" fill="none" xmlns="http://www.w3.org/2000/svg">
<path d="M8.90474 16.2837C8.90474 15.4188 9.04461 14.5897 9.29427 13.812L4.9244 10.3854C4.07273 12.161 3.5929 14.1618 3.5929 16.2837C3.5929 18.4037 4.07214 20.4033 4.92263 22.1777L9.29014 18.7444C9.04284 17.9704 8.90474 17.1443 8.90474 16.2837Z" fill="#FBBC05"/>
<path d="M16.5774 8.41605C18.4071 8.41605 20.0596 9.08177 21.3581 10.1711L25.1354 6.29784C22.8336 4.24016 19.8826 2.96924 16.5774 2.96924C11.4462 2.96924 7.03619 5.98253 4.92444 10.3854L9.29431 13.812C10.3012 10.6734 13.1714 8.41605 16.5774 8.41605Z" fill="#EB4335"/>
<path d="M16.5774 24.1512C13.1714 24.1512 10.3012 21.8938 9.29431 18.7552L4.92444 22.1813C7.03619 26.5847 11.4462 29.598 16.5774 29.598C19.7445 29.598 22.7681 28.4433 25.0374 26.2797L20.8895 22.9868C19.7191 23.7439 18.2454 24.1512 16.5774 24.1512Z" fill="#34A853"/>
<path d="M28.9717 16.2837C28.9717 15.497 28.8536 14.6497 28.6766 13.8629H16.5774V19.0071H23.5418C23.1936 20.761 22.2457 22.1094 20.8894 22.9869L25.0374 26.2798C27.4212 24.0079 28.9717 20.6236 28.9717 16.2837Z" fill="#4285F4"/>
</svg>
