<svg width="21" height="20" viewBox="0 0 21 20" fill="none" xmlns="http://www.w3.org/2000/svg">
<path d="M7.84332 17.3105V14.7624C7.84332 14.1119 8.38997 13.5846 9.0643 13.5846H11.5293C11.8531 13.5846 12.1637 13.7087 12.3927 13.9296C12.6217 14.1504 12.7503 14.45 12.7503 14.7624V17.3105C12.7482 17.5809 12.8582 17.8409 13.0557 18.0328C13.2532 18.2247 13.522 18.3327 13.8023 18.3327H15.4841C16.2695 18.3346 17.0235 18.0351 17.5796 17.5C18.1357 16.965 18.4482 16.2385 18.4482 15.4809V8.22173C18.4482 7.60973 18.167 7.02922 17.6803 6.63657L11.9593 2.22924C10.9642 1.45648 9.5383 1.48143 8.57284 2.2885L2.98242 6.63657C2.47275 7.01764 2.16813 7.59988 2.15308 8.22173V15.4735C2.15308 17.0526 3.48017 18.3327 5.11722 18.3327H6.76056C7.34284 18.3327 7.81606 17.8795 7.82028 17.3179L7.84332 17.3105Z" fill="#0075F3"/>
</svg>
