<svg width="33" height="32" viewBox="0 0 33 32" fill="none" xmlns="http://www.w3.org/2000/svg">
<path d="M20.6308 11.2C18.6209 11.1929 16.6908 12.0069 15.2659 13.4626C13.841 14.9183 13.0383 16.8961 13.0349 18.96V26.8C13.0349 27.1183 13.158 27.4235 13.3772 27.6485C13.5963 27.8736 13.8936 28 14.2035 28H16.9303C17.5757 28 18.0989 27.4627 18.0989 26.8V18.96C18.0983 18.2249 18.4024 17.5243 18.9352 17.0333C19.4679 16.5422 20.1789 16.3071 20.8905 16.3867C22.1967 16.5556 23.1731 17.7015 23.1628 19.0533V26.8C23.1628 27.4627 23.686 28 24.3314 28H27.0582C27.7036 28 28.2268 27.4627 28.2268 26.8V18.96C28.2233 16.8961 27.4207 14.9183 25.9958 13.4626C24.5709 12.0069 22.6408 11.1929 20.6308 11.2Z" fill="#007EBB"/>
<rect x="4.85474" y="12.4" width="5.84302" height="15.6" rx="0.9" fill="#007EBB"/>
<ellipse cx="7.77625" cy="7" rx="2.92151" ry="3" fill="#007EBB"/>
</svg>
