<svg width="17" height="13" viewBox="0 0 17 13" fill="none"
    xmlns="http://www.w3.org/2000/svg">
    <g id="np_menu_1807551_000000" opacity="1">
        <path id="Shape" fill-rule="evenodd" clip-rule="evenodd" d="M1.33334 0C0.854313 0 0.466675 0.375134 0.466675 0.83871C0.466675 1.30229 0.854313 1.67742 1.33334 1.67742H16.0667C16.5457 1.67742 16.9333 1.30229 16.9333 0.83871C16.9333 0.375134 16.5457 0 16.0667 0H1.33334ZM5.64471 5.66211C5.29804 5.66211 5.01751 6.03724 5.01751 6.50082C5.01751 6.9644 5.29804 7.33953 5.64471 7.33953H16.307C16.6537 7.33953 16.9342 6.9644 16.9342 6.50082C16.9342 6.03724 16.6537 5.66211 16.307 5.66211H5.64471ZM0.466675 12.161C0.466675 11.6974 0.854313 11.3223 1.33334 11.3223H16.0667C16.5457 11.3223 16.9333 11.6974 16.9333 12.161C16.9333 12.6246 16.5457 12.9997 16.0667 12.9997H1.33334C0.854313 12.9997 0.466675 12.6246 0.466675 12.161Z" fill="#0075F3"/>
    </g>
</svg>
