<svg width="21" height="20" viewBox="0 0 21 20" fill="none" xmlns="http://www.w3.org/2000/svg">
<path fill-rule="evenodd" clip-rule="evenodd" d="M14.925 13.25L17.7583 16.075C17.9161 16.2315 18.0048 16.4445 18.0048 16.6667C18.0048 16.8889 17.9161 17.1019 17.7583 17.2583C17.6019 17.4161 17.3889 17.5048 17.1667 17.5048C16.9445 17.5048 16.7315 17.4161 16.575 17.2583L13.75 14.425C12.5854 15.3392 11.1472 15.8352 9.66667 15.8333C5.98477 15.8333 3 12.8486 3 9.16667C3 5.48477 5.98477 2.5 9.66667 2.5C13.3486 2.5 16.3333 5.48477 16.3333 9.16667C16.3352 10.6472 15.8392 12.0854 14.925 13.25ZM9.66667 4.16667C6.90524 4.16667 4.66667 6.40524 4.66667 9.16667C4.66667 11.9281 6.90524 14.1667 9.66667 14.1667C12.4281 14.1667 14.6667 11.9281 14.6667 9.16667C14.6667 6.40524 12.4281 4.16667 9.66667 4.16667Z" fill="#637381"/>
</svg>
