<svg width="33" height="32" viewBox="0 0 33 32" fill="none" xmlns="http://www.w3.org/2000/svg">
<path d="M11.3694 26.6667C15.2484 26.8 19.015 25.3168 21.8127 22.5544C24.6104 19.7921 26.2013 15.9854 26.2237 12C27.1036 10.8819 27.7569 9.59446 28.1454 8.21335C28.2046 7.99046 28.1309 7.75262 27.9572 7.60584C27.7834 7.45906 27.5419 7.43069 27.3403 7.53335C26.3964 7.99993 25.2679 7.79605 24.5357 7.02669C23.6148 5.99113 22.3247 5.38264 20.9597 5.33993C19.5946 5.29723 18.2709 5.82395 17.2903 6.80002C15.9386 8.14428 15.3719 10.1177 15.7971 12C11.4473 12.2667 8.46088 10.1467 6.07173 7.24002C5.92507 7.06947 5.69408 7.00411 5.48305 7.07346C5.27202 7.1428 5.12089 7.33372 5.09789 7.56002C4.16576 12.8696 6.54809 18.2143 11.0708 20.96C9.59006 22.7038 7.51068 23.7929 5.26669 24C5.02022 24.042 4.82701 24.2402 4.78593 24.4933C4.74486 24.7464 4.86502 24.9982 5.08491 25.12C7.03716 26.1218 9.18701 26.6509 11.3694 26.6667Z" fill="#00AAEC"/>
</svg>
